<?xml version="1.0" standalone="no"?>
<!DOCTYPE svg PUBLIC "-//W3C//DTD SVG 20010904//EN"
 "http://www.w3.org/TR/2001/REC-SVG-20010904/DTD/svg10.dtd">
<svg version="1.0" xmlns="http://www.w3.org/2000/svg"
 width="700.000000pt" height="700.000000pt" viewBox="0 0 700.000000 700.000000"
 preserveAspectRatio="xMidYMid meet">
<metadata>
Created by potrace 1.14, written by Peter Selinger 2001-2017
</metadata>
<g transform="translate(0.000000,700.000000) scale(0.100000,-0.100000)"
fill="#000000" stroke="none">
<path d="M4357 6192 c-10 -2 -19 -13 -21 -25 -3 -12 -9 -44 -15 -72 -6 -27
-15 -75 -20 -105 -6 -30 -13 -66 -16 -80 -11 -53 -37 -186 -41 -215 -3 -16 -9
-52 -15 -80 -16 -83 -19 -98 -29 -155 -13 -72 -18 -95 -30 -156 -6 -28 -13
-64 -16 -80 -3 -16 -25 -135 -50 -264 -38 -199 -67 -352 -89 -470 -3 -14 -14
-74 -25 -135 -12 -60 -23 -121 -26 -135 -2 -14 -9 -45 -14 -70 -5 -25 -12 -56
-14 -70 -6 -34 -64 -339 -81 -425 -8 -38 -17 -86 -20 -105 -3 -19 -28 -150
-55 -290 -27 -140 -52 -271 -55 -290 -3 -19 -17 -93 -31 -165 -14 -71 -27
-141 -30 -155 -2 -14 -7 -36 -9 -50 -3 -14 -7 -36 -10 -50 -3 -14 -7 -36 -10
-50 -3 -14 -10 -52 -15 -85 -6 -33 -18 -94 -26 -135 -9 -41 -18 -86 -20 -100
-2 -14 -20 -108 -40 -210 -20 -102 -38 -196 -40 -210 -3 -14 -18 -95 -34 -180
-16 -85 -32 -168 -35 -185 -6 -34 -12 -69 -20 -105 -8 -37 -15 -72 -20 -105
-5 -27 -18 -96 -31 -165 -3 -14 -7 -32 -9 -40 -3 -8 -7 -33 -11 -55 -3 -22 -9
-57 -14 -77 l-8 -38 34 0 c19 -1 90 -1 159 -1 69 0 171 0 228 1 l102 0 23 123
c13 67 25 133 28 147 18 91 114 600 118 624 3 16 10 52 15 80 6 28 13 65 16
81 3 17 12 64 21 105 8 41 17 89 20 105 2 17 11 64 19 105 8 41 17 86 19 100
2 14 14 75 26 135 12 61 24 121 26 135 3 14 12 61 20 105 8 44 17 91 20 105 2
14 17 93 33 175 26 131 51 263 66 345 3 14 17 86 31 160 14 74 28 146 30 160
3 14 14 72 25 130 11 58 27 139 34 180 18 94 14 75 86 450 33 173 67 349 74
390 22 119 25 132 35 185 6 28 12 59 14 70 3 17 39 204 50 260 2 11 7 40 12
65 4 25 8 47 9 50 4 18 15 80 20 105 2 17 7 39 9 50 11 54 67 344 72 374 3 18
16 88 29 155 13 66 23 122 21 123 -4 4 -480 9 -499 5z"/>
<path d="M2020 5431 c-82 -80 -582 -569 -814 -794 -118 -116 -569 -556 -815
-797 l-149 -145 0 -263 0 -263 107 -92 c58 -50 120 -104 136 -118 17 -15 136
-118 265 -229 129 -111 249 -214 265 -229 17 -14 143 -123 280 -241 259 -222
300 -258 319 -275 6 -6 108 -93 226 -195 118 -101 226 -195 240 -207 13 -12
26 -20 29 -18 2 3 4 201 4 441 0 360 -2 437 -14 445 -15 9 -33 23 -143 112
-91 74 -59 48 -626 502 -267 213 -489 392 -495 397 -6 5 8 24 37 51 41 37 97
87 263 237 27 25 61 56 76 70 14 14 64 59 110 100 45 41 93 84 105 95 12 11
59 54 105 95 46 41 96 86 110 100 36 34 187 171 213 193 12 10 59 53 106 96
47 43 100 91 119 107 l34 30 1 428 c0 235 -1 432 -4 439 -3 7 -40 -22 -90 -72z"/>
<path d="M5042 5082 l0 -440 56 -54 c32 -29 125 -114 207 -188 83 -74 173
-156 200 -181 28 -26 62 -57 76 -70 15 -13 44 -40 66 -59 21 -19 81 -73 133
-120 51 -47 106 -96 120 -110 34 -32 88 -80 225 -204 61 -54 131 -118 157
-142 l46 -42 -21 -20 c-12 -11 -148 -120 -302 -244 -154 -123 -417 -334 -585
-468 -168 -134 -307 -247 -310 -250 -3 -3 -19 -16 -37 -28 l-31 -22 0 -440 c0
-327 3 -438 12 -433 6 3 40 32 76 63 36 31 78 68 94 81 16 13 34 29 40 34 6 6
45 39 86 75 41 36 77 67 80 70 3 3 50 43 105 90 55 47 102 87 105 90 3 3 52
45 110 94 58 49 110 94 115 100 6 6 39 36 75 66 77 65 71 60 280 240 91 78
181 156 201 174 20 17 47 40 60 51 13 11 58 50 99 86 41 35 125 107 185 159
61 52 118 102 129 112 17 15 18 36 19 280 l0 263 -149 146 c-259 254 -546 534
-641 626 -50 48 -236 230 -414 403 -177 173 -357 349 -400 390 -42 41 -120
117 -172 168 l-95 94 0 -440z"/>
</g>
</svg>
